<?xml version="1.0" standalone="no"?><!DOCTYPE svg PUBLIC "-//W3C//DTD SVG 1.1//EN" "http://www.w3.org/Graphics/SVG/1.1/DTD/svg11.dtd"><svg class="icon" width="64px" height="64.00px" viewBox="0 0 1024 1024" version="1.1" xmlns="http://www.w3.org/2000/svg"><path d="M647.56992 1022.656c25.152 0 50.304-7.04 73.216-23.36 48-35.008 58.176-80.96 65.024-167.296 0-14.016-6.848-25.664-20.608-30.336l-173.76-51.328a25.344 25.344 0 0 0-32 14.016v2.304c-34.304 58.368-44.48 127.68-19.328 188.288 11.456 30.336 36.608 51.328 70.912 63.04 11.392 2.304 22.848 4.672 36.544 4.672z m-274.368-175.04c11.392 0 25.152-2.304 38.848-4.672 34.304-9.28 59.456-30.336 70.912-62.976 25.152-62.976 9.6-126.336-24.768-187.008-6.848-11.648-20.544-18.688-34.304-14.016l-173.76 51.328c-13.696 4.672-20.544 16.384-20.544 30.336 6.848 88.704 24.704 131.008 70.4 163.712 22.912 14.016 48 23.296 73.216 23.296z m409.28-79.36a41.728 41.728 0 0 0 16-4.608 36.224 36.224 0 0 0 13.76-18.688c6.848-37.312 18.304-65.28 32-97.984 25.152-62.976 54.848-132.992 50.304-268.352-2.304-74.624-22.848-130.624-61.76-165.632-38.848-37.312-82.304-35.008-86.848-35.008-105.216 0-148.672 102.656-169.216 179.648-34.304 119.04-11.456 184.32 2.304 221.696v2.304c13.696 39.68 18.24 74.688 13.696 107.328a30.272 30.272 0 0 0 20.544 32.64l162.368 46.72h6.848zM238.28992 593.28h6.848l162.368-46.656c13.696-4.672 22.848-16.32 20.544-32.64-4.544-30.336 2.304-67.648 13.696-107.328l2.304-4.672c13.76-39.68 34.304-102.656 2.304-221.696-22.848-76.992-64-179.648-171.52-179.648C272.65792 0.64 229.13792-1.664 190.28992 35.648 153.61792 70.656 133.07392 126.72 128.52992 201.344 123.92192 336.64 151.37792 408.96 178.83392 469.632c13.696 32.64 25.152 60.672 32 97.984 2.304 7.04 6.848 14.08 13.696 18.688 2.304 4.672 9.152 7.04 13.76 7.04z" fill="#2A4B3C" /></svg>