<?xml version="1.0" standalone="no"?><!DOCTYPE svg PUBLIC "-//W3C//DTD SVG 1.1//EN" "http://www.w3.org/Graphics/SVG/1.1/DTD/svg11.dtd"><svg class="icon" width="64px" height="64.00px" viewBox="0 0 1024 1024" version="1.1" xmlns="http://www.w3.org/2000/svg"><path d="M243.10744 985.536h-2.2c-64.9-0.6-125.7-26.4-171.2-72.7-45.5-46.3-70.2-107.5-69.7-172.4 0.6-64.9 26.4-125.7 72.7-171.2l163.8-163.8c46.5-46.6 107.5-71.9 172.5-72h0.3c64.9 0 125.8 25.2 171.8 71 14.9 14.9 14.9 39 0.1 53.9-14.9 14.9-39 14.9-53.9 0.1-31.5-31.5-73.4-48.8-118-48.8h-0.2c-44.6 0-86.5 17.5-118 49l-164.7 164.8c-32 31.5-49.7 73.2-50.1 117.7-0.4 44.5 16.6 86.6 47.8 118.4 31.2 31.8 73 49.5 117.5 49.9 44.3 0.1 86.6-16.6 118.4-47.8l84.9-84c15-14.8 39.1-14.7 53.9 0.3 14.8 15 14.7 39.1-0.3 53.9l-85.1 84.2c-45.8 44.8-106.2 69.5-170.3 69.5z" fill="#707070" /><path d="M615.20744 690.036c-64.8 0-125.7-25.2-171.5-71-14.9-14.9-14.9-39-0.1-53.9 14.9-14.9 39-14.9 53.9-0.1 31.5 31.4 73.3 48.7 117.7 48.7h0.2c44.5-0.1 86.4-17.4 117.8-49l164.9-164.9c31.9-31.4 49.5-73.1 49.9-117.6s-16.7-86.4-47.9-118.1c-31.2-31.7-72.9-49.3-117.4-49.7-44.3 0.1-86.4 16.7-118.1 47.9l-1.7 1.7-82.8 82c-14.9 14.8-39.1 14.7-53.9-0.3-14.8-14.9-14.7-39.1 0.3-53.9l84.6-83.8c46.3-45.6 107.7-70.5 172.2-69.8 64.8 0.5 125.6 26.2 171.1 72.4s70.3 107.3 69.8 172.2c-0.5 64.8-26.2 125.6-72.4 171.1l-163.8 163.8c-46.6 46.7-107.6 72.1-172.4 72.1-0.2 0.2-0.4 0.2-0.4 0.2z" fill="#707070" /></svg>