<?xml version="1.0" standalone="no"?><!DOCTYPE svg PUBLIC "-//W3C//DTD SVG 1.1//EN" "http://www.w3.org/Graphics/SVG/1.1/DTD/svg11.dtd"><svg class="icon" width="64px" height="64.00px" viewBox="0 0 1024 1024" version="1.1" xmlns="http://www.w3.org/2000/svg"><path d="M854.445 356.884c-4.39 9.779-9.241 19.824-14.472 30.048l84.737 41.39v474.522l-181.908-92.905v6.178h-35.873v-3.185L511.94 912.518l-192.225-76.217v1.904h-35.873v-4.826l-182.663 72.425V432.596l182.663-102.099V313.16h35.873v31.513l190.564 165.289 22.458-11.766a1711.41 1711.41 0 0 1-19.763-31.049L300.47 282.827 65.306 414.272v541.435l232.787-92.299 215.856 85.585 213.846-109.217 232.787 118.891V408.728l-106.137-51.844z" fill="#819292" /><path d="M319.715 313.16h-35.873V838.205h35.873V344.673zM706.929 328.588c12.474-9.77 21.844-22.74 26.584-37.516h-26.584v37.516zM706.929 595.816V816.117h35.873V545.232a2540.831 2540.831 0 0 1-35.873 50.584z" fill="#809091" /><path d="M653.56 666.572s22.539-28.368 53.369-70.756a2538.136 2538.136 0 0 0 35.873-50.585c33.7-48.81 70.343-105.857 97.171-158.299 5.23-10.224 10.082-20.269 14.472-30.048 15.251-33.974 24.865-64.69 24.865-88.151 0-113.722-101.072-205.912-225.75-205.912s-225.75 92.19-225.75 205.912c0 47.469 39.334 124.624 85.164 198.414a1711.41 1711.41 0 0 0 19.763 31.049c58.958 90.517 120.823 168.376 120.823 168.376z m-2.691-476.128c47.554 0 86.103 35.162 86.103 78.537a72.156 72.156 0 0 1-3.459 22.091c-4.74 14.776-14.11 27.747-26.584 37.516-15.064 11.798-34.648 18.929-56.06 18.929-47.553 0-86.103-35.162-86.103-78.537 0-43.374 38.549-78.536 86.103-78.536z" fill="#D73949" /></svg>