<?xml version="1.0" standalone="no"?><!DOCTYPE svg PUBLIC "-//W3C//DTD SVG 1.1//EN" "http://www.w3.org/Graphics/SVG/1.1/DTD/svg11.dtd"><svg class="icon" width="64px" height="64.00px" viewBox="0 0 1024 1024" version="1.1" xmlns="http://www.w3.org/2000/svg"><path d="M204.8 236.8A19.2 19.2 0 0 0 185.6 256v512c0 10.5984 8.6016 19.2 19.2 19.2h614.4a19.2 19.2 0 0 0 19.2-19.2V256A19.2 19.2 0 0 0 819.2 236.8H204.8z m0-64h614.4c45.9264 0 83.2 37.2736 83.2 83.2v512c0 45.9264-37.2736 83.2-83.2 83.2H204.8A83.2 83.2 0 0 1 121.6 768V256c0-45.9264 37.2736-83.2 83.2-83.2z" fill="#5A5A68" /><path d="M819.2 787.2a19.2 19.2 0 0 0 19.2-19.2v-141.5168c0-26.624-15.0528-51.0464-38.912-62.976l-93.6448-46.7968a70.4 70.4 0 0 0-71.8336 5.2736l-378.88 265.216H819.2z m8.9088-280.9344a134.4 134.4 0 0 1 74.2912 120.2176V768c0 45.9264-37.2736 83.2-83.2 83.2H218.5728a52.48 52.48 0 0 1-30.1056-95.488l408.832-286.1568a134.4 134.4 0 0 1 137.1648-10.0864l93.6448 46.7968z" fill="#5A5A68" /><path d="M332.8 435.2a51.2 51.2 0 1 0 0-102.4 51.2 51.2 0 0 0 0 102.4z" fill="#5A5A68" /></svg>