<?xml version="1.0" standalone="no"?><!DOCTYPE svg PUBLIC "-//W3C//DTD SVG 1.1//EN" "http://www.w3.org/Graphics/SVG/1.1/DTD/svg11.dtd"><svg t="1776428570206" class="icon" viewBox="0 0 1024 1024" version="1.1" xmlns="http://www.w3.org/2000/svg" p-id="1922" xmlns:xlink="http://www.w3.org/1999/xlink" width="64" height="64"><path d="M588 855.4H436c-64.5 0-125.5 0-169.8-6.8-21.6-3.3-87.3-13.4-87.3-67.2v-14.9c0-139.7 115.4-253.3 257.2-253.3h152c141.8 0 257.2 113.6 257.2 253.3v14.9c0 52.6-65.7 63-87.2 66.5-44 7-103 7.5-170.1 7.5zM436 556.5c-117.9 0-213.9 94.2-213.9 210v14.9c0 13.7 27.5 20.8 50.6 24.4 41.1 6.3 100.4 6.3 163.2 6.3h152c65.2 0 122.5-0.5 163.1-7 15.3-2.4 50.7-9.6 50.7-23.7v-14.9c0-115.8-96-210-213.9-210H436z m75.4-83.9c-112.5 0-204-90.2-204-201s91.5-201 204-201 204 90.2 204 201-91.5 201-204 201z m0-358.7c-88.6 0-160.7 70.7-160.7 157.7 0 87 72.1 157.7 160.7 157.7s160.7-70.7 160.7-157.7c0-87-72.1-157.7-160.7-157.7z" p-id="1923"></path></svg>