<?xml version="1.0" standalone="no"?><!DOCTYPE svg PUBLIC "-//W3C//DTD SVG 1.1//EN" "http://www.w3.org/Graphics/SVG/1.1/DTD/svg11.dtd"><svg class="icon" width="64px" height="64.00px" viewBox="0 0 1024 1024" version="1.1" xmlns="http://www.w3.org/2000/svg"><path d="M778.953 1004.486h-17.472c-12.079-5.165-24.71-9.325-36.138-15.662-68.017-37.713-135.792-75.858-203.513-114.1-5.749-3.248-10.048-3.28-15.783-0.017-41.79 23.778-83.415 47.893-125.802 70.57-37.707 20.174-72.53 45.972-113.843 59.208h-17.474c-2.106-0.723-4.169-1.636-6.327-2.141-36.148-8.471-59.877-42.643-54.136-79.345a40861.31 40861.31 0 0 1 42.067-263.163c1.039-6.374-0.522-10.172-4.668-14.438-22.548-23.2-44.861-46.625-67.276-69.952-37.655-39.192-75.43-78.27-112.95-117.59-19.548-20.487-25.203-45.062-17.14-71.815 7.775-25.795 25.808-42.09 52.208-48.257 9.725-2.273 19.745-3.293 29.64-4.825 72.79-11.27 145.559-22.66 218.397-33.6 8.433-1.267 12.487-5.157 15.906-12.621 34.574-75.475 69.58-150.752 104.31-226.155 7.144-15.51 17.38-28.116 32.743-35.732 7.428-3.682 15.643-5.774 23.502-8.582h17.473c32.838 6.656 50.041 28.931 63.045 58.253 31.82 71.75 65.563 142.646 98.333 213.979 2.8 6.094 6.052 9.34 13.213 10.42 77.942 11.763 155.77 24.276 233.738 35.868 24.406 3.629 45.68 11.39 59.876 32.893 19.15 29.003 15.03 65.588-10.62 92.316-59.365 61.856-118.84 123.608-178.034 185.63-2.864 3-5.431 8.464-4.836 12.263 13.424 85.528 26.715 171.083 41.338 256.409 8.405 49.04-21.255 79.448-49.692 87.115-3.389 0.916-6.723 2.043-10.085 3.07z m-9.377-71.967c-0.197-4.233-0.058-7.072-0.496-9.817-13.58-84.84-26.98-169.711-40.982-254.483-4.517-27.34 2.399-50.117 21.662-70.023 58.49-60.44 116.635-121.217 174.89-181.884 2.517-2.622 4.801-5.466 8.114-9.256-82.095-12.756-162.097-25.888-242.343-37.317-33.13-4.716-55.63-19.785-69.537-50.78-33.18-73.968-67.796-147.292-101.85-220.866-1.402-3.026-3-5.959-5.178-10.267-2.299 4.748-3.88 7.888-5.355 11.077-34.847 75.344-69.726 150.673-104.497 226.052-10.475 22.708-27.475 37.986-52.15 42.059-63.104 10.414-126.38 19.778-189.583 29.589-21.837 3.39-43.663 6.852-67.47 10.593 3.942 4.253 6.459 7.056 9.064 9.769 58.497 60.883 116.931 121.827 175.551 182.594 17.372 18.006 25.016 39.276 21.167 63.8-11.618 74.031-23.846 147.967-35.78 221.948-2.45 15.187-4.662 30.412-7.287 47.61 5.002-2.62 8.117-4.152 11.142-5.85 68.773-38.57 137.648-76.957 206.24-115.844 26.32-14.92 51.698-14.98 78.038-0.038 68.301 38.744 136.892 76.981 205.377 115.402 3.304 1.856 6.703 3.54 11.263 5.932z" /></svg>