<?xml version="1.0" standalone="no"?><!DOCTYPE svg PUBLIC "-//W3C//DTD SVG 1.1//EN" "http://www.w3.org/Graphics/SVG/1.1/DTD/svg11.dtd"><svg t="1776515291754" class="icon" viewBox="0 0 1024 1024" version="1.1" xmlns="http://www.w3.org/2000/svg" p-id="2043" xmlns:xlink="http://www.w3.org/1999/xlink" width="64" height="64"><path d="M853.333333 256h-0.853333C774.570667 152.576 651.178667 85.333333 512 85.333333 276.736 85.333333 85.333333 276.736 85.333333 512s191.402667 426.666667 426.666667 426.666667c139.178667 0 262.570667-67.242667 340.48-170.666667H853.333333v-1.066667c53.333333-71.253333 85.333333-159.274667 85.333334-254.933333s-32-183.68-85.333334-254.933333V256zM384 828.202667C259.072 777.472 170.666667 654.933333 170.666667 512c0-14.506667 1.194667-28.672 2.944-42.666667H213.333333l42.666667 85.333334v85.333333l85.333333 85.333333 42.666667 42.666667v60.202667zM512 853.333333a340.224 340.224 0 0 1-80.384-9.941333L469.333333 768l42.666667-85.333333v-85.333334h-85.333333l-42.666667-42.666666H341.333333l-42.666666-85.333334 42.666666-85.333333 42.666667-42.666667 42.666667-42.666666 42.666666-85.333334v-39.722666c13.994667-1.749333 28.16-2.944 42.666667-2.944 80.725333 0 154.837333 28.288 213.333333 75.306666V298.666667l-42.666666 85.333333 42.666666 42.666667v42.666666l-85.333333 42.666667-42.666667 43.349333L640 597.333333l42.666667 42.666667 42.666666 85.333333 27.904 27.904A340.266667 340.266667 0 0 1 512 853.333333z" fill="" p-id="2044"></path></svg>